<?xml version="1.0" encoding="UTF-8"?><svg xmlns="http://www.w3.org/2000/svg" viewBox="0 0 423.4 52.27"><defs><style>.d{fill:#ffffff;}</style></defs><g id="a"/><g id="b"><g id="c"><g><path class="d" d="M38.89,21.59c-1.51-3.02-3.57-5.35-6.18-6.99-2.61-1.63-5.52-2.44-8.74-2.44-2.7,0-5.1,.56-7.2,1.68-2.09,1.11-3.7,2.58-4.82,4.4V0H0V51.71H11.95v-5.45c1.17,1.82,2.77,3.28,4.82,4.37,2.05,1.09,4.45,1.64,7.2,1.64,3.22,0,6.13-.82,8.74-2.48,2.61-1.65,4.67-4,6.18-7.06,1.52-3.05,2.27-6.58,2.27-10.58s-.75-7.53-2.27-10.56Zm-12.4,17.65c-1.68,1.75-3.71,2.62-6.08,2.62s-4.39-.86-6.05-2.59c-1.65-1.72-2.48-4.07-2.48-7.05s.83-5.34,2.48-7.06c1.66-1.73,3.67-2.59,6.05-2.59s4.46,.85,6.11,2.55c1.66,1.7,2.48,4.05,2.48,7.03s-.84,5.34-2.51,7.09Z"/><path class="d" d="M64.64,14.15c-2.09,1.24-3.84,2.93-5.24,5.07v-6.5h-11.95V51.71h11.95v-18.1c0-3.21,.75-5.46,2.24-6.74,1.49-1.28,3.72-1.92,6.71-1.92h3.28V12.3c-2.56,0-4.89,.62-6.99,1.85Z"/><path class="d" d="M104.2,12.72v5.52c-1.12-1.82-2.72-3.29-4.79-4.4-2.07-1.12-4.48-1.68-7.23-1.68-3.22,0-6.13,.81-8.74,2.44-2.61,1.64-4.67,3.97-6.18,6.99-1.52,3.03-2.27,6.55-2.27,10.56s.75,7.53,2.27,10.58c1.51,3.06,3.57,5.41,6.18,7.06,2.61,1.66,5.5,2.48,8.67,2.48,2.75,0,5.16-.56,7.23-1.68,2.07-1.11,3.69-2.58,4.86-4.4v5.52h11.95V12.72h-11.95Zm-2.48,26.55c-1.66,1.73-3.67,2.59-6.05,2.59s-4.39-.87-6.04-2.62c-1.66-1.75-2.49-4.11-2.49-7.09s.83-5.33,2.49-7.03c1.65-1.7,3.66-2.55,6.04-2.55s4.39,.86,6.05,2.59c1.65,1.72,2.48,4.07,2.48,7.06s-.83,5.33-2.48,7.05Z"/><path class="d" d="M159.51,16.74c-2.73-2.96-6.37-4.44-10.94-4.44-2.56,0-4.87,.5-6.92,1.5-2.05,1-3.68,2.37-4.89,4.09v-5.17h-11.95V51.71h11.95V30.54c0-2.61,.68-4.64,2.03-6.08,1.35-1.45,3.17-2.17,5.45-2.17s4.1,.72,5.45,2.17c1.35,1.44,2.03,3.47,2.03,6.08v21.17h11.88V28.93c0-5.17-1.37-9.23-4.09-12.19Z"/><path class="d" d="M198.75,0V18.1c-1.21-1.82-2.88-3.26-5-4.33s-4.46-1.61-7.02-1.61c-3.22,0-6.13,.81-8.74,2.44-2.61,1.64-4.67,3.97-6.18,6.99-1.52,3.03-2.27,6.55-2.27,10.56s.75,7.53,2.27,10.58c1.51,3.06,3.57,5.41,6.18,7.06,2.61,1.66,5.52,2.48,8.74,2.48,2.75,0,5.16-.56,7.23-1.68,2.07-1.11,3.67-2.6,4.79-4.47v5.59h11.95V0h-11.95Zm-2.48,39.27c-1.66,1.73-3.67,2.59-6.05,2.59s-4.39-.87-6.04-2.62c-1.66-1.75-2.48-4.11-2.48-7.09s.82-5.33,2.48-7.03c1.65-1.7,3.67-2.55,6.04-2.55s4.39,.86,6.05,2.59c1.65,1.72,2.48,4.07,2.48,7.06s-.83,5.33-2.48,7.05Z"/><path class="d" d="M248.89,33.93c-1.38-1.61-2.97-2.77-4.79-3.5-1.82-.72-4.17-1.45-7.06-2.2-2.51-.56-4.37-1.12-5.55-1.68-1.19-.55-1.79-1.39-1.79-2.51,0-.93,.38-1.67,1.12-2.2,.75-.54,1.82-.81,3.22-.81,1.63,0,2.94,.4,3.95,1.19,1,.79,1.59,1.87,1.78,3.22h11.04c-.42-4.01-2.04-7.22-4.86-9.65-2.82-2.42-6.67-3.63-11.56-3.63-3.31,0-6.17,.54-8.56,1.61-2.4,1.07-4.22,2.52-5.46,4.36-1.23,1.84-1.85,3.88-1.85,6.12,0,2.65,.68,4.76,2.03,6.32,1.35,1.56,2.96,2.71,4.82,3.43,1.86,.72,4.19,1.41,6.99,2.06,2.61,.65,4.5,1.25,5.66,1.78,1.16,.54,1.75,1.36,1.75,2.48,0,.93-.41,1.69-1.23,2.27-.81,.59-1.96,.88-3.45,.88-1.64,0-3.01-.42-4.13-1.26-1.12-.84-1.75-1.93-1.88-3.29h-11.81c.18,2.52,1.04,4.79,2.58,6.82,1.54,2.02,3.63,3.62,6.29,4.78,2.66,1.17,5.68,1.75,9.09,1.75,3.16,0,5.95-.51,8.35-1.54,2.4-1.02,4.23-2.43,5.52-4.22,1.28-1.8,1.92-3.84,1.92-6.12-.05-2.7-.76-4.85-2.13-6.46Z"/><path class="d" d="M293.09,16.74c-2.7-2.96-6.29-4.44-10.76-4.44-2.61,0-4.97,.51-7.06,1.54-2.1,1.02-3.75,2.4-4.96,4.12V0h-11.95V51.71h11.95V30.54c0-2.61,.67-4.64,2.02-6.08,1.35-1.45,3.17-2.17,5.45-2.17s4.1,.72,5.45,2.17c1.36,1.44,2.03,3.47,2.03,6.08v21.17h11.88V28.93c0-5.17-1.35-9.23-4.05-12.19Z"/><path class="d" d="M332.29,12.72v5.52c-1.12-1.82-2.71-3.29-4.78-4.4-2.08-1.12-4.49-1.68-7.24-1.68-3.21,0-6.12,.81-8.73,2.44-2.61,1.64-4.67,3.97-6.19,6.99-1.51,3.03-2.27,6.55-2.27,10.56s.76,7.53,2.27,10.58c1.52,3.06,3.58,5.41,6.19,7.06,2.61,1.66,5.49,2.48,8.66,2.48,2.75,0,5.16-.56,7.24-1.68,2.07-1.11,3.69-2.58,4.85-4.4v5.52h11.95V12.72h-11.95Zm-2.48,26.55c-1.65,1.73-3.67,2.59-6.04,2.59s-4.4-.87-6.05-2.62c-1.65-1.75-2.48-4.11-2.48-7.09s.83-5.33,2.48-7.03c1.65-1.7,3.67-2.55,6.05-2.55s4.39,.86,6.04,2.59c1.65,1.72,2.48,4.07,2.48,7.06s-.83,5.33-2.48,7.05Z"/><path class="d" d="M370.1,14.15c-2.1,1.24-3.85,2.93-5.24,5.07v-6.5h-11.95V51.71h11.95v-18.1c0-3.21,.74-5.46,2.23-6.74,1.49-1.28,3.73-1.92,6.71-1.92h3.29V12.3c-2.57,0-4.9,.62-6.99,1.85Z"/><path class="d" d="M406.58,12.72l-6.24,8.39c3.34,1.58,6.81,3.25,9.51,5.45l11.47-13.84h-14.74ZM382.82,0V15.03s5.46,1.23,11.95,3.71V0h-11.95Z"/><path class="d" d="M382.82,51.71V17.76s20.97,4.72,29.59,14.34c6.4,7.14,9.18,12.55,10.4,16.19,.72,2.16,.58,3.42,.58,3.42h-12.83s.15-4.84-6.48-11.64c-4.99-5.12-9.28-6.33-9.28-6.33v17.97h-11.98Z"/></g></g></g></svg>