<svg id="Variations" xmlns="http://www.w3.org/2000/svg" width="135.629" height="30.137" viewBox="0 0 135.629 30.137">
  <g id="Group-5" transform="translate(0 0)">
    <path id="Shape" d="M13.594,0a13.594,13.594,0,0,0,0,27.188c.885,1.274,5.433,3.166,7.309,2.927a22.49,22.49,0,0,1,.19-5.181A13.6,13.6,0,0,0,13.594,0ZM8.558,21.4A2.238,2.238,0,1,1,10.8,19.164,2.238,2.238,0,0,1,8.558,21.4Zm0-5.468A2.238,2.238,0,1,1,10.8,13.7,2.238,2.238,0,0,1,8.558,15.934Zm0-5.544A2.238,2.238,0,1,1,10.8,8.151,2.238,2.238,0,0,1,8.558,10.389ZM13.62,21.4a2.238,2.238,0,1,1,2.238-2.238A2.238,2.238,0,0,1,13.62,21.4Zm0-5.468A2.238,2.238,0,1,1,15.858,13.7,2.238,2.238,0,0,1,13.62,15.934Zm0-5.544a2.238,2.238,0,1,1,2.238-2.238A2.238,2.238,0,0,1,13.62,10.389ZM18.63,21.4a2.238,2.238,0,1,1,2.238-2.238A2.238,2.238,0,0,1,18.63,21.4Zm0-5.468A2.238,2.238,0,1,1,20.868,13.7,2.238,2.238,0,0,1,18.63,15.934Zm0-5.544a2.238,2.238,0,1,1,2.238-2.238A2.238,2.238,0,0,1,18.63,10.389Z" transform="translate(0 0)" fill="#f2783a"/>
    <path id="CallHub" d="M59.974,23.678l.7,3.606a13.164,13.164,0,0,1-5.242.879c-7.06,0-10.7-4.394-10.7-10.212C44.732,10.982,49.7,7.1,55.883,7.1a12.042,12.042,0,0,1,5.03.909l-.939,3.667a9.974,9.974,0,0,0-3.879-.758c-3.667,0-6.515,2.212-6.515,6.757,0,4.091,2.424,6.666,6.545,6.666A11.539,11.539,0,0,0,59.974,23.678ZM75.821,27.86H71.67L71.4,26.375h-.091a5.338,5.338,0,0,1-4.242,1.818,4.542,4.542,0,0,1-4.788-4.545c0-3.848,3.454-5.7,8.7-5.666V17.77c0-.788-.424-1.909-2.7-1.909a8.334,8.334,0,0,0-4.091,1.121l-.848-2.97a12.231,12.231,0,0,1,5.757-1.3c4.939,0,6.515,2.909,6.515,6.394v5.151A22.959,22.959,0,0,0,75.821,27.86Zm-4.7-5.394V20.86c-2.424-.03-4.3.545-4.3,2.333a1.654,1.654,0,0,0,1.818,1.758,2.516,2.516,0,0,0,2.394-1.7A3.3,3.3,0,0,0,71.125,22.466Zm8.121,5.394V6.346h4.606V27.86Zm8.333,0V6.346h4.606V27.86ZM96.063,7.437H100.7v7.848h7.606V7.437h4.606V27.86h-4.606V19.315H100.7V27.86H96.063Zm34.7,5.606V23.1c0,1.939.061,3.515.121,4.757h-4l-.212-2.091h-.091a5.285,5.285,0,0,1-4.636,2.424c-3,0-5.212-1.879-5.212-6.454v-8.7h4.636v7.969c0,2.151.7,3.454,2.3,3.454a2.479,2.479,0,0,0,2.3-1.606,2.573,2.573,0,0,0,.152-1V13.042Zm7.485,14.818h-3.909c.061-.97.121-2.757.121-4.424V6.346h4.606V14.8h.061a5.219,5.219,0,0,1,4.485-2.091c3.545,0,6.151,2.939,6.121,7.485,0,5.333-3.394,8-6.788,8a4.918,4.918,0,0,1-4.454-2.394h-.061Zm.818-8.485v2.182a3.379,3.379,0,0,0,.091.818,2.788,2.788,0,0,0,2.7,2.182c1.97,0,3.182-1.515,3.182-4.182,0-2.3-1.03-4.121-3.182-4.121a2.854,2.854,0,0,0-2.7,2.273A3.833,3.833,0,0,0,139.062,19.376Z" transform="translate(-14.1 -2)" fill="#f2783a" fill-rule="evenodd"/>
  </g>
</svg>
