<svg xmlns="http://www.w3.org/2000/svg" width="289.494" height="92.63" viewBox="0 0 289.494 92.63">
  <g id="Group_16021" data-name="Group 16021" transform="translate(-90.386 -244.079)">
    <g id="Group_16018" data-name="Group 16018" transform="translate(172.715 244.079)">
      <path id="Path_1348" data-name="Path 1348" d="M204.208,269.719a23.206,23.206,0,0,1,10.436-17.208c1.8,1.451,15,10.782,8.432,29.026,2.419-3.731,12.739-22.9-7.164-37.457C214.621,244.908,202.273,254.169,204.208,269.719Z" transform="translate(-188.082 -244.079)" fill="#dca200"/>
      <path id="Path_1349" data-name="Path 1349" d="M212.868,292.643s-7.874-4.792-11.539-16.587a22.349,22.349,0,0,0-15.737-8.109C185.685,270.9,186.237,293.288,212.868,292.643Z" transform="translate(-185.592 -247.307)" fill="#990090"/>
      <path id="Path_1350" data-name="Path 1350" d="M215.878,290.353a19.8,19.8,0,0,0,8.2-16.264,20.9,20.9,0,0,0-8.2-16.264s-8.385,5.989-8.017,16.264A23.167,23.167,0,0,0,215.878,290.353Z" transform="translate(-188.602 -245.938)" fill="#990090"/>
    </g>
    <g id="Group_16019" data-name="Group 16019" transform="translate(90.386 287.546)">
      <path id="Path_1351" data-name="Path 1351" d="M95.564,314.06a9.078,9.078,0,0,0-.805-4.348q-.807-1.411-3.222-1.411H90.386v-1.152h5.178a7.154,7.154,0,0,1,3.308.6,3.348,3.348,0,0,1,1.582,1.987,10.9,10.9,0,0,1,8.055-3.168,8.7,8.7,0,0,1,7.651,4,17.685,17.685,0,0,1,2.7,10.108,17.235,17.235,0,0,1-2.791,10.137,9.321,9.321,0,0,1-8.141,3.974,14.532,14.532,0,0,1-3.854-.46,19.688,19.688,0,0,1-3.337-1.268v12.1H95.564Zm16.08,15.2a17.968,17.968,0,0,0,1.755-8.582,18.8,18.8,0,0,0-1.669-8.552,5.311,5.311,0,0,0-4.947-3.254,6.8,6.8,0,0,0-6.041,3.456v18.43q1.725.808,2.991,1.268a7.212,7.212,0,0,0,2.474.46A5.787,5.787,0,0,0,111.644,329.265Z" transform="translate(-90.386 -295.999)" fill="#990090"/>
      <path id="Path_1352" data-name="Path 1352" d="M131.1,314.04a9.066,9.066,0,0,0-.806-4.348q-.807-1.411-3.222-1.411h-.575v-1.152h4.6a7.156,7.156,0,0,1,3.308.6,3.344,3.344,0,0,1,1.582,1.987,12.38,12.38,0,0,1,3.107-2.217,8.767,8.767,0,0,1,4.085-.95,5.722,5.722,0,0,1,3.452.864,8.538,8.538,0,0,1,2.013,2.592l-2.3,1.728a3.78,3.78,0,0,0-1.841-1.3,8.155,8.155,0,0,0-2.761-.432,6.541,6.541,0,0,0-3.165.778,6.231,6.231,0,0,0-2.3,2.1V334.2H131.1Z" transform="translate(-95.27 -295.996)" fill="#990090"/>
      <path id="Path_1353" data-name="Path 1353" d="M158.82,334.054a7.707,7.707,0,0,1-3.25-2.563,7.621,7.621,0,0,1-1.352-4.723,6.366,6.366,0,0,1,4.056-6.22,25.91,25.91,0,0,1,10.616-1.842h1.725q0-5.644-1.553-7.718a5.263,5.263,0,0,0-4.487-2.074,7.061,7.061,0,0,0-4.142,1.095,6.133,6.133,0,0,0-2.187,3.8h-2.588a16.162,16.162,0,0,1,.229-3.081,4.157,4.157,0,0,1,1.209-2.1,6.7,6.7,0,0,1,3.423-1.526,25.966,25.966,0,0,1,5.207-.489,10.409,10.409,0,0,1,7.364,2.505q2.7,2.5,2.7,9.59v15.55h-2.876l-2.014-2.592h-.288a7.979,7.979,0,0,1-3.049,2.246,12.011,12.011,0,0,1-5.005.922A9.826,9.826,0,0,1,158.82,334.054Zm9.493-2.735a9.274,9.274,0,0,0,2.3-2.535v-7.775h-1.725a12.383,12.383,0,0,0-6.731,1.583,4.779,4.779,0,0,0-2.474,4.175,5.155,5.155,0,0,0,1.582,4.061,5.625,5.625,0,0,0,3.884,1.411A5.236,5.236,0,0,0,168.313,331.318Z" transform="translate(-99.02 -296.004)" fill="#990090"/>
      <path id="Path_1354" data-name="Path 1354" d="M188.822,331.69q-1.842-1.843-1.841-5.644V308.191h-4.027v-2.3h4.027V300.7l2.877-3.456h2.3v8.64h6.9v2.3h-6.9v17.854q0,5.183,4.028,5.183a8.123,8.123,0,0,0,2.33-.287,10.262,10.262,0,0,0,1.985-.865l.575,1.152a13.531,13.531,0,0,1-2.934,1.641,11.374,11.374,0,0,1-4.257.662A6.835,6.835,0,0,1,188.822,331.69Z" transform="translate(-102.906 -294.738)" fill="#990090"/>
      <path id="Path_1355" data-name="Path 1355" d="M209.624,314.036a9.408,9.408,0,0,0-.649-3.891c-.4-1.006-1.767-.714-3.378-.714l-4.086.112-.461-2.3,8.717.02a7.245,7.245,0,0,1,3.193.547,2.743,2.743,0,0,1,1.382,1.851,15.43,15.43,0,0,1,.46,4.378v20.157h-5.178Z" transform="translate(-105.354 -296.089)" fill="#990090"/>
      <path id="Path_1356" data-name="Path 1356" d="M226.635,313.928a9.079,9.079,0,0,0-.805-4.349q-.807-1.411-3.222-1.411h-1.151v-1.152h5.178a7.315,7.315,0,0,1,3.251.576,3.5,3.5,0,0,1,1.64,1.728h.288a9.972,9.972,0,0,1,3.136-2.044,10.829,10.829,0,0,1,4.344-.835,8.93,8.93,0,0,1,4.142.892,6.346,6.346,0,0,1,2.762,3.139,10.159,10.159,0,0,1,3.826-2.966,11.434,11.434,0,0,1,4.8-1.065,7.713,7.713,0,0,1,5.868,2.3q2.186,2.3,2.186,8.064v17.278H257.7V316.807q0-4.148-1.151-5.961a3.818,3.818,0,0,0-3.452-1.813,6.2,6.2,0,0,0-3.394,1.18,8.712,8.712,0,0,0-2.647,2.563,16.747,16.747,0,0,1,.288,4.032v17.278h-5.178V316.807q0-4.148-1.15-5.961a3.818,3.818,0,0,0-3.452-1.813q-3.051,0-5.753,3.052v22h-5.178Z" transform="translate(-108.114 -295.981)" fill="#dca200"/>
      <path id="Path_1357" data-name="Path 1357" d="M280.221,332.683a11.921,11.921,0,0,1-4.372-5.1,17.8,17.8,0,0,1,0-14.284,11.928,11.928,0,0,1,4.372-5.1,13.251,13.251,0,0,1,13.578,0,11.94,11.94,0,0,1,4.372,5.1,17.8,17.8,0,0,1,0,14.284,11.933,11.933,0,0,1-4.372,5.1,13.246,13.246,0,0,1-13.578,0Zm10.558-1.987a10.092,10.092,0,0,0,2.531-4.262,20.565,20.565,0,0,0,0-11.979,10.1,10.1,0,0,0-2.531-4.262,5.345,5.345,0,0,0-7.537,0,10.094,10.094,0,0,0-2.531,4.262,20.566,20.566,0,0,0,0,11.979,10.083,10.083,0,0,0,2.531,4.262,5.345,5.345,0,0,0,7.537,0Z" transform="translate(-115.269 -295.966)" fill="#dca200"/>
      <path id="Path_1358" data-name="Path 1358" d="M320.1,328.325l-6.9-9.215v13.246h-5.178v-31.1a9.068,9.068,0,0,0-.805-4.349q-.807-1.41-3.222-1.41h-1.15v-1.152h5.177a7.235,7.235,0,0,1,3.193.547,3.186,3.186,0,0,1,1.525,1.987,15.454,15.454,0,0,1,.46,4.377v16.99l7.192-9.215a11.424,11.424,0,0,1,3.164-2.793,8.651,8.651,0,0,1,4.315-.95h1.725v1.441a7.347,7.347,0,0,0-2.991.633,6.393,6.393,0,0,0-2.474,1.958l-6.328,8.064,7.191,9.215a16.716,16.716,0,0,0,3.135,3.283,7.275,7.275,0,0,0,3.193,1.383v1.094a6.874,6.874,0,0,1-2.876.577Q323.55,332.933,320.1,328.325Z" transform="translate(-119.122 -294.345)" fill="#dca200"/>
      <path id="Path_1359" data-name="Path 1359" d="M339.857,332.25a4.172,4.172,0,0,1-1.208-2.217,22.944,22.944,0,0,1-.23-3.83h1.151a7.065,7.065,0,0,0,2.5,4.463,8.676,8.676,0,0,0,5.552,1.584,8.382,8.382,0,0,0,4.747-1.094,3.4,3.4,0,0,0,1.582-2.938,3.893,3.893,0,0,0-1.237-2.88,12.3,12.3,0,0,0-3.941-2.3l-3.452-1.44a14.305,14.305,0,0,1-5.178-3.226,6.4,6.4,0,0,1-1.726-4.549,6.5,6.5,0,0,1,2.646-5.5,11.1,11.1,0,0,1,6.847-1.987q6.327,0,8.629,2.3a4.176,4.176,0,0,1,1.208,2.189,22.986,22.986,0,0,1,.23,3.858h-1.15a6.9,6.9,0,0,0-2.417-4.463,8.266,8.266,0,0,0-5.35-1.584,7,7,0,0,0-4.229,1.123,3.458,3.458,0,0,0-1.525,2.908q0,3,4.6,4.9L351.363,319a17.276,17.276,0,0,1,5.7,3.427,6.835,6.835,0,0,1-1.036,10.136,12.3,12.3,0,0,1-7.248,1.987Q342.157,334.555,339.857,332.25Z" transform="translate(-123.934 -295.966)" fill="#dca200"/>
      <path id="Path_1360" data-name="Path 1360" d="M367.587,301.256a9.08,9.08,0,0,0-.805-4.349q-.807-1.41-3.222-1.41h-1.151v-1.152h5.178a7.233,7.233,0,0,1,3.193.547,3.187,3.187,0,0,1,1.525,1.987,15.454,15.454,0,0,1,.46,4.377v6.335a9.974,9.974,0,0,1,3.136-2.044,10.832,10.832,0,0,1,4.344-.835,10.566,10.566,0,0,1,7.048,2.3q2.732,2.3,2.733,8.064v17.278h-5.178V315.079q0-4.031-1.812-5.9a6.029,6.029,0,0,0-4.516-1.871q-3.051,0-5.753,3.052v22h-5.178Z" transform="translate(-127.179 -294.345)" fill="#dca200"/>
      <path id="Path_1361" data-name="Path 1361" d="M404.813,333.776a7.72,7.72,0,0,1-3.251-2.562,7.63,7.63,0,0,1-1.352-4.723,6.364,6.364,0,0,1,4.056-6.22,25.891,25.891,0,0,1,10.615-1.843h1.726q0-5.644-1.553-7.718a5.266,5.266,0,0,0-4.487-2.074,7.065,7.065,0,0,0-4.143,1.095,6.141,6.141,0,0,0-2.186,3.8h-2.589a16.081,16.081,0,0,1,.23-3.081,4.156,4.156,0,0,1,1.208-2.1,6.7,6.7,0,0,1,3.423-1.527,25.96,25.96,0,0,1,5.207-.489,10.409,10.409,0,0,1,7.364,2.506q2.7,2.5,2.7,9.589v15.55h-2.877l-2.013-2.591h-.288a8,8,0,0,1-3.049,2.246,12.027,12.027,0,0,1-5.005.922A9.811,9.811,0,0,1,404.813,333.776Zm9.493-2.735a9.274,9.274,0,0,0,2.3-2.535v-7.775h-1.726a12.393,12.393,0,0,0-6.731,1.583,4.782,4.782,0,0,0-2.474,4.176,5.153,5.153,0,0,0,1.583,4.061,5.622,5.622,0,0,0,3.884,1.411A5.236,5.236,0,0,0,414.306,331.041Z" transform="translate(-132.292 -295.966)" fill="#dca200"/>
    </g>
  </g>
</svg>
